<svg width="57" height="40" viewBox="0 0 57 40" fill="none" xmlns="http://www.w3.org/2000/svg">
<path fill-rule="evenodd" clip-rule="evenodd" d="M0 19.9012C0 25.0654 2.12762 30.4785 5.54231 33.9475C12.225 40.7375 21.9591 41.9439 30.0121 36.9097C30.7279 36.4635 31.888 35.5755 32.4506 35.0059C37.2661 30.1175 36.4431 28.8483 36.4431 21.8386V13.3848C36.4431 10.685 37.2924 9.06821 38.4788 7.54566C39.9869 5.61267 42.2941 4.93326 44.8682 4.93326C51.1219 4.93326 55.0595 13.3871 50.0734 18.7195C48.3179 20.5964 45.2841 21.6211 42.5326 20.8834C41.6417 20.6434 41.6395 20.4304 40.5692 20.4304C38.3934 20.4304 37.1414 24.0541 40.0723 25.1641C44.6559 26.8997 49.1147 25.6865 52.7502 22.693C60.9259 15.9636 56.8635 0 44.3516 0C42.2437 0 39.8447 0.726535 38.4503 1.52706C35.2895 3.3434 32.8664 6.34821 32.0762 10.1423C31.5947 12.452 31.8005 21.9418 31.8026 25.0071C31.8048 28.6846 31.0584 30.5054 28.0924 32.4765C22.2436 36.3626 14.3177 36.1249 9.41231 31.0392C8.23466 29.8193 7.05702 28.4267 6.29969 26.8324C3.90063 21.7781 4.36249 15.8133 7.49264 11.1985C7.82755 10.7029 7.95013 10.6558 8.27626 10.241C8.60896 9.81943 8.66586 9.70057 9.06645 9.288C10.9971 7.29673 14.7839 4.93326 18.5663 4.93326C20.6107 4.93326 21.4119 4.83907 23.4541 5.38623C24.9842 5.79657 24.7828 6.16654 26.6455 6.16654C28.2194 6.16654 28.5368 4.57223 28.5368 3.35013C28.5368 0.955257 22.3509 0.00448478 19.5973 0.00448478C16.2942 0.00448478 13.9784 0.791564 11.6625 1.73785C10.5024 2.21324 9.54146 2.8142 8.55864 3.48916C8.04204 3.84345 7.66995 4.16187 7.19495 4.55878C6.9213 4.7875 6.83595 4.91531 6.57329 5.15525C5.02792 6.56571 3.71238 8.05688 2.69236 9.98311C2.33556 10.6581 2.10135 10.9339 1.79271 11.703C0.809894 14.1472 0.00218891 16.5264 0.00218891 19.9057L0 19.9012Z" fill="#F273E6"/>
</svg>
