<svg width="18" height="18" viewBox="0 0 18 18" fill="none" xmlns="http://www.w3.org/2000/svg">
<path d="M15.9193 2.09347C15.5524 1.71699 15.0096 1.57673 14.5034 1.72437L2.69919 5.157C2.1651 5.30538 1.78655 5.73132 1.68457 6.27242C1.5804 6.82312 1.94428 7.5222 2.41967 7.81452L6.11058 10.083C6.48914 10.3155 6.97774 10.2572 7.291 9.94128L11.5175 5.68851C11.7302 5.46705 12.0824 5.46705 12.2951 5.68851C12.5079 5.90259 12.5079 6.24954 12.2951 6.471L8.06131 10.7245C7.74732 11.0397 7.68863 11.5306 7.91972 11.9115L10.1749 15.6394C10.439 16.0824 10.8939 16.3334 11.3927 16.3334C11.4514 16.3334 11.5175 16.3334 11.5762 16.326C12.1484 16.2521 12.6032 15.8609 12.772 15.3073L16.2714 3.5182C16.4255 3.01622 16.2861 2.46996 15.9193 2.09347Z" fill="white"/>
</svg>
